<?xml version="1.0" encoding="UTF-8" standalone="no"?>
<!-- Created with Inkscape (http://www.inkscape.org/) -->

<svg
   width="185.69272mm"
   height="177.11873mm"
   viewBox="0 0 185.69272 177.11873"
   version="1.1"
   id="svg5"
   sodipodi:docname="logo.svg"
   inkscape:export-filename="/home/stephan/bitmap.png"
   inkscape:export-xdpi="431.16"
   inkscape:export-ydpi="431.16"
   inkscape:version="1.1.2 (0a00cf5339, 2022-02-04)"
   xmlns:inkscape="http://www.inkscape.org/namespaces/inkscape"
   xmlns:sodipodi="http://sodipodi.sourceforge.net/DTD/sodipodi-0.dtd"
   xmlns="http://www.w3.org/2000/svg"
   xmlns:svg="http://www.w3.org/2000/svg">
  <sodipodi:namedview
     id="namedview7"
     pagecolor="#ffffff"
     bordercolor="#666666"
     borderopacity="1.0"
     inkscape:pageshadow="2"
     inkscape:pageopacity="0.0"
     inkscape:pagecheckerboard="0"
     inkscape:document-units="mm"
     showgrid="false"
     inkscape:zoom="0.62869687"
     inkscape:cx="453.31863"
     inkscape:cy="749.96397"
     inkscape:window-width="2206"
     inkscape:window-height="1619"
     inkscape:window-x="1146"
     inkscape:window-y="167"
     inkscape:window-maximized="0"
     inkscape:current-layer="layer2"
     inkscape:snap-global="false"
     inkscape:snap-bbox="true"
     inkscape:snap-bbox-midpoints="true"
     inkscape:bbox-nodes="true"
     inkscape:snap-bbox-edge-midpoints="true"
     inkscape:object-paths="true"
     inkscape:snap-intersection-paths="true"
     inkscape:snap-smooth-nodes="true"
     inkscape:snap-midpoints="true"
     inkscape:snap-object-midpoints="true"
     inkscape:snap-center="true"
     inkscape:snap-text-baseline="true"
     inkscape:snap-page="true"
     inkscape:bbox-paths="true"
     showguides="true"
     inkscape:guide-bbox="true"
     inkscape:snap-to-guides="false"
     fit-margin-top="0"
     fit-margin-left="0"
     fit-margin-right="0"
     fit-margin-bottom="0" />
  <defs
     id="defs2" />
  <g
     inkscape:groupmode="layer"
     id="layer2"
     inkscape:label="Layer 2"
     style="display:inline"
     transform="translate(-16.157506,-12.779575)">
    <rect
       style="fill:#fdf7e5;fill-opacity:1;stroke:none;stroke-width:20.8471;stroke-linejoin:miter;stroke-miterlimit:4;stroke-dasharray:none;stroke-opacity:1"
       id="rect19392"
       width="185.50996"
       height="177.41272"
       x="16.437801"
       y="12.80861" />
    <g
       id="g21178">
      <path
         id="path13343"
         style="color:#000000;fill:#0f783c;stroke-width:3.77953;-inkscape-stroke:none"
         d="m 419.69727,138.50977 v 33.86132 c 39.1207,1.34451 78.40747,13.06264 113.6582,36.04883 l 18.58008,-28.49414 C 511.02593,153.24955 465.26321,139.80513 419.69727,138.50977 Z m -58.79688,5.10351 c -64.81167,13.20882 -124.52738,51.2765 -163.44141,110.93555 -18.73093,28.71638 -30.94304,59.82876 -37.00976,91.58594 h 34.63281 c 5.65611,-25.27355 15.85949,-49.99575 30.86328,-72.99805 32.49202,-49.8135 81.43097,-82.28974 134.95508,-94.9336 z M 552.05469,180 533.45898,208.48633 c 81.51363,53.21716 116.55002,150.47963 94.20508,239.76562 h 34.81836 C 683.96246,347.64246 643.23581,239.5287 552.05469,180 Z M 155.91602,393.44531 c -0.22114,83.95807 40.70752,166.40041 116.12109,215.60547 27.89442,18.20027 58.05137,30.24391 88.86328,36.48242 V 610.79688 C 336.57446,605.02456 312.79983,595.02505 290.625,580.55664 224.95575,537.70944 189.42702,466.27698 189.75195,393.44531 Z m 458.99023,91.62891 c -4.73055,10.54463 -10.33482,20.86272 -16.85547,30.85351 -41.13435,63.02515 -108.59868,98.27033 -178.35351,100.70313 v 33.8418 c 80.8885,-2.53882 159.34026,-43.17922 206.83984,-115.95704 10.34281,-15.84699 18.68248,-32.42818 25.11719,-49.4414 z"
         transform="scale(0.26458333)" />
      <path
         id="path13686"
         style="color:#000000;fill:#0f783c;stroke-width:3.77953;-inkscape-stroke:none"
         d="m 409.25195,211.76367 c -58.71233,0.98379 -115.96937,30.10523 -150.37695,82.85547 -55.05213,84.4004 -31.16235,197.94992 53.23047,253.01367 15.46493,10.0904 31.91084,17.51952 48.79492,22.42188 v -35.71875 c -10.39141,-3.82363 -20.52539,-8.87248 -30.20703,-15.18946 -68.99811,-45.01916 -88.3417,-136.94294 -43.33203,-205.94726 45.00967,-69.0043 136.9309,-88.35369 205.9414,-43.35352 l 18.58008,-28.49414 C 480.2298,220.71137 444.47934,211.1734 409.25195,211.76367 Z m 102.71875,29.63867 -18.5957,28.48633 c 68.98571,45.03816 88.29427,136.96317 43.26562,205.95508 -27.08179,41.49409 -71.12611,65.01381 -116.94335,67.38477 v 33.86718 c 56.95826,-2.48039 111.98144,-31.40458 145.43164,-82.65625 55.07535,-84.38521 31.21948,-197.95013 -53.15821,-253.03711 z"
         transform="scale(0.26458333)" />
      <path
         id="path13688"
         style="color:#000000;fill:#0f783c;stroke-width:3.77953;-inkscape-stroke:none"
         d="m 419.69727,282.67578 v 33.98438 c 12.07933,1.21119 24.07824,5.2552 35.00585,12.38086 l 18.58008,-28.49414 c -16.59814,-10.82327 -35.05716,-16.6446 -53.58593,-17.8711 z m -58.79688,12.06836 c -16.87291,8.59418 -31.78494,21.54913 -42.83008,38.48242 -33.73072,51.71257 -19.05752,121.48091 32.65039,155.21875 3.32285,2.16806 6.72199,4.13303 10.17969,5.9043 v -40.70703 c -29.33561,-25.2089 -36.08657,-68.50204 -14.34375,-101.83594 4.10838,-6.29855 8.95376,-11.80866 14.34375,-16.49219 z m 112.43359,5.83984 -18.5957,28.47852 c 36.30667,23.70325 46.4209,71.85023 22.72266,108.16016 -13.53402,20.73651 -35.04159,32.9119 -57.76367,35.14453 v 33.9414 c 33.88525,-2.38436 66.33915,-19.99304 86.25,-50.5 33.74498,-51.70325 19.08532,-121.47253 -32.61329,-155.22461 z"
         transform="scale(0.26458333)" />
      <path
         style="fill:none;stroke:#0f783c;stroke-width:8;stroke-linecap:butt;stroke-linejoin:miter;stroke-miterlimit:4;stroke-dasharray:none;stroke-opacity:1"
         d="M 108.67547,19.690816 108.18118,182.98707"
         id="path14392" />
      <path
         style="fill:#0f783c;fill-opacity:1;stroke:none;stroke-width:30.2362;stroke-linejoin:miter;stroke-miterlimit:4;stroke-dasharray:none;stroke-opacity:1"
         id="path16011"
         sodipodi:type="arc"
         sodipodi:cx="108.42832"
         sodipodi:cy="19.678709"
         sodipodi:rx="6.8991342"
         sodipodi:ry="6.8991342"
         sodipodi:start="5.2907736"
         sodipodi:end="5.280361"
         sodipodi:arc-type="arc"
         d="m 112.19989,13.901741 a 6.8991342,6.8991342 0 0 1 2.0152,9.533481 6.8991342,6.8991342 0 0 1 -9.5282,2.040013 6.8991342,6.8991342 0 0 1 -2.06481,-9.52286 6.8991342,6.8991342 0 0 1 9.51745,-2.089592"
         sodipodi:open="true" />
      <path
         style="fill:#0f783c;fill-opacity:1;stroke:none;stroke-width:30.2362;stroke-linejoin:miter;stroke-miterlimit:4;stroke-dasharray:none;stroke-opacity:1"
         id="path17053"
         sodipodi:type="arc"
         sodipodi:cx="108.42832"
         sodipodi:cy="182.99918"
         sodipodi:rx="6.8991342"
         sodipodi:ry="6.8991342"
         sodipodi:start="5.2907736"
         sodipodi:end="5.280361"
         sodipodi:arc-type="arc"
         d="m 112.19989,177.22221 a 6.8991342,6.8991342 0 0 1 2.0152,9.53348 6.8991342,6.8991342 0 0 1 -9.5282,2.04001 6.8991342,6.8991342 0 0 1 -2.06481,-9.52286 6.8991342,6.8991342 0 0 1 9.51745,-2.08959"
         sodipodi:open="true" />
      <path
         style="color:#000000;fill:#0f783c;-inkscape-stroke:none"
         d="m 104.67578,19.677734 -0.49414,163.296876 8,0.0254 0.49414,-163.296875 z"
         id="path17072" />
      <path
         style="color:#000000;fill:#0f783c;stroke-width:0.502109;-inkscape-stroke:none"
         d="m 23.056641,100.33008 v 8 h 42.905661 v -8 z"
         id="path17335" />
      <path
         style="color:#000000;fill:#0f783c;stroke-width:0.501295;-inkscape-stroke:none"
         d="m 152.18452,100.33008 v 8 h 42.76657 v -8 z"
         id="path18955" />
      <path
         style="fill:#0f783c;fill-opacity:1;stroke:none;stroke-width:30.2362;stroke-linejoin:miter;stroke-miterlimit:4;stroke-dasharray:none;stroke-opacity:1"
         id="path18977"
         sodipodi:type="arc"
         sodipodi:cx="194.9511"
         sodipodi:cy="104.33008"
         sodipodi:rx="6.8991342"
         sodipodi:ry="6.8991342"
         sodipodi:start="5.2907736"
         sodipodi:end="5.280361"
         sodipodi:arc-type="arc"
         d="m 198.72266,98.55311 a 6.8991342,6.8991342 0 0 1 2.0152,9.53348 6.8991342,6.8991342 0 0 1 -9.5282,2.04001 6.8991342,6.8991342 0 0 1 -2.06481,-9.52286 6.8991342,6.8991342 0 0 1 9.51745,-2.089588"
         sodipodi:open="true" />
      <path
         style="fill:#0f783c;fill-opacity:1;stroke:none;stroke-width:30.2362;stroke-linejoin:miter;stroke-miterlimit:4;stroke-dasharray:none;stroke-opacity:1"
         id="path18979"
         sodipodi:type="arc"
         sodipodi:cx="23.056641"
         sodipodi:cy="104.33008"
         sodipodi:rx="6.8991342"
         sodipodi:ry="6.8991342"
         sodipodi:start="5.2907736"
         sodipodi:end="5.280361"
         sodipodi:arc-type="arc"
         d="m 26.828204,98.55311 a 6.8991342,6.8991342 0 0 1 2.015203,9.53348 6.8991342,6.8991342 0 0 1 -9.528202,2.04001 6.8991342,6.8991342 0 0 1 -2.06481,-9.52286 6.8991342,6.8991342 0 0 1 9.517453,-2.089588"
         sodipodi:open="true" />
      <path
         style="fill:#0f783c;fill-opacity:1;stroke:none;stroke-width:30.2362;stroke-linejoin:miter;stroke-miterlimit:4;stroke-dasharray:none;stroke-opacity:1"
         id="path19003"
         sodipodi:type="arc"
         sodipodi:cx="108.39838"
         sodipodi:cy="104.33008"
         sodipodi:rx="9.4340076"
         sodipodi:ry="9.4340076"
         sodipodi:start="5.2907736"
         sodipodi:end="5.280361"
         sodipodi:arc-type="arc"
         d="m 113.55568,96.430542 a 9.4340076,9.4340076 0 0 1 2.75563,13.036258 9.4340076,9.4340076 0 0 1 -13.02904,2.78956 9.4340076,9.4340076 0 0 1 -2.82346,-13.021742 9.4340076,9.4340076 0 0 1 13.01434,-2.857348"
         sodipodi:open="true" />
      <path
         style="fill:#0f783c;fill-opacity:1;stroke:none;stroke-width:30.2362;stroke-linejoin:miter;stroke-miterlimit:4;stroke-dasharray:none;stroke-opacity:1"
         id="path19354"
         sodipodi:type="arc"
         sodipodi:cx="178.57535"
         sodipodi:cy="41.446945"
         sodipodi:rx="4.3679552"
         sodipodi:ry="4.3679552"
         sodipodi:start="5.2907736"
         sodipodi:end="5.280361"
         sodipodi:arc-type="arc"
         d="m 180.96319,37.789452 a 4.3679552,4.3679552 0 0 1 1.27585,6.035803 4.3679552,4.3679552 0 0 1 -6.03246,1.291566 4.3679552,4.3679552 0 0 1 -1.30726,-6.029079 4.3679552,4.3679552 0 0 1 6.02565,-1.322955"
         sodipodi:open="true" />
      <path
         style="fill:#0f783c;fill-opacity:1;stroke:none;stroke-width:30.2362;stroke-linejoin:miter;stroke-miterlimit:4;stroke-dasharray:none;stroke-opacity:1"
         id="path19356"
         sodipodi:type="arc"
         sodipodi:cx="170.24475"
         sodipodi:cy="52.837528"
         sodipodi:rx="4.3679552"
         sodipodi:ry="4.3679552"
         sodipodi:start="5.2907736"
         sodipodi:end="5.280361"
         sodipodi:arc-type="arc"
         d="m 172.63259,49.180035 a 4.3679552,4.3679552 0 0 1 1.27586,6.035803 4.3679552,4.3679552 0 0 1 -6.03246,1.291566 4.3679552,4.3679552 0 0 1 -1.30727,-6.029079 4.3679552,4.3679552 0 0 1 6.02566,-1.322955"
         sodipodi:open="true" />
      <path
         style="fill:#0f783c;fill-opacity:1;stroke:none;stroke-width:30.2362;stroke-linejoin:miter;stroke-miterlimit:4;stroke-dasharray:none;stroke-opacity:1"
         id="path19358"
         sodipodi:type="arc"
         sodipodi:cx="169.97856"
         sodipodi:cy="155.36807"
         sodipodi:rx="4.3679552"
         sodipodi:ry="4.3679552"
         sodipodi:start="5.2907736"
         sodipodi:end="5.280361"
         sodipodi:arc-type="arc"
         d="m 172.3664,151.71058 a 4.3679552,4.3679552 0 0 1 1.27586,6.0358 4.3679552,4.3679552 0 0 1 -6.03246,1.29157 4.3679552,4.3679552 0 0 1 -1.30727,-6.02908 4.3679552,4.3679552 0 0 1 6.02566,-1.32296"
         sodipodi:open="true" />
      <path
         style="fill:#0f783c;fill-opacity:1;stroke:none;stroke-width:30.2362;stroke-linejoin:miter;stroke-miterlimit:4;stroke-dasharray:none;stroke-opacity:1"
         id="path19360"
         sodipodi:type="arc"
         sodipodi:cx="178.73314"
         sodipodi:cy="166.5981"
         sodipodi:rx="4.3679552"
         sodipodi:ry="4.3679552"
         sodipodi:start="5.2907736"
         sodipodi:end="5.280361"
         sodipodi:arc-type="arc"
         d="m 181.12098,162.94061 a 4.3679552,4.3679552 0 0 1 1.27586,6.0358 4.3679552,4.3679552 0 0 1 -6.03247,1.29156 4.3679552,4.3679552 0 0 1 -1.30726,-6.02907 4.3679552,4.3679552 0 0 1 6.02566,-1.32296"
         sodipodi:open="true" />
      <path
         style="fill:#0f783c;fill-opacity:1;stroke:none;stroke-width:30.2362;stroke-linejoin:miter;stroke-miterlimit:4;stroke-dasharray:none;stroke-opacity:1"
         id="path19362"
         sodipodi:type="arc"
         sodipodi:cx="39.450493"
         sodipodi:cy="41.335564"
         sodipodi:rx="4.3679552"
         sodipodi:ry="4.3679552"
         sodipodi:start="5.2907736"
         sodipodi:end="5.280361"
         sodipodi:arc-type="arc"
         d="m 41.838332,37.67807 a 4.3679552,4.3679552 0 0 1 1.275858,6.035803 4.3679552,4.3679552 0 0 1 -6.032462,1.291566 4.3679552,4.3679552 0 0 1 -1.307265,-6.029079 4.3679552,4.3679552 0 0 1 6.025656,-1.322955"
         sodipodi:open="true" />
      <path
         style="fill:#0f783c;fill-opacity:1;stroke:none;stroke-width:30.2362;stroke-linejoin:miter;stroke-miterlimit:4;stroke-dasharray:none;stroke-opacity:1"
         id="path19364"
         sodipodi:type="arc"
         sodipodi:cx="47.983963"
         sodipodi:cy="52.990215"
         sodipodi:rx="4.3679552"
         sodipodi:ry="4.3679552"
         sodipodi:start="5.2907736"
         sodipodi:end="5.280361"
         sodipodi:arc-type="arc"
         d="m 50.371802,49.332722 a 4.3679552,4.3679552 0 0 1 1.275858,6.035803 4.3679552,4.3679552 0 0 1 -6.032462,1.291566 4.3679552,4.3679552 0 0 1 -1.307264,-6.029079 4.3679552,4.3679552 0 0 1 6.025655,-1.322955"
         sodipodi:open="true" />
      <path
         style="fill:#0f783c;fill-opacity:1;stroke:none;stroke-width:30.2362;stroke-linejoin:miter;stroke-miterlimit:4;stroke-dasharray:none;stroke-opacity:1"
         id="path19366"
         sodipodi:type="arc"
         sodipodi:cx="48.141071"
         sodipodi:cy="155.12897"
         sodipodi:rx="4.3679552"
         sodipodi:ry="4.3679552"
         sodipodi:start="5.2907736"
         sodipodi:end="5.280361"
         sodipodi:arc-type="arc"
         d="m 50.52891,151.47147 a 4.3679552,4.3679552 0 0 1 1.275858,6.03581 4.3679552,4.3679552 0 0 1 -6.032461,1.29156 4.3679552,4.3679552 0 0 1 -1.307265,-6.02908 4.3679552,4.3679552 0 0 1 6.025655,-1.32295"
         sodipodi:open="true" />
      <path
         style="fill:#0f783c;fill-opacity:1;stroke:none;stroke-width:30.2362;stroke-linejoin:miter;stroke-miterlimit:4;stroke-dasharray:none;stroke-opacity:1"
         id="path19368"
         sodipodi:type="arc"
         sodipodi:cx="39.633728"
         sodipodi:cy="166.72357"
         sodipodi:rx="4.3679552"
         sodipodi:ry="4.3679552"
         sodipodi:start="5.2907736"
         sodipodi:end="5.280361"
         sodipodi:arc-type="arc"
         d="m 42.021567,163.06608 a 4.3679552,4.3679552 0 0 1 1.275858,6.0358 4.3679552,4.3679552 0 0 1 -6.032462,1.29157 4.3679552,4.3679552 0 0 1 -1.307264,-6.02908 4.3679552,4.3679552 0 0 1 6.025655,-1.32296"
         sodipodi:open="true" />
    </g>
  </g>
</svg>
